<svg id="Capa_1" enable-background="new 0 0 512 512" height="512" viewBox="0 0 512 512" width="512" xmlns="http://www.w3.org/2000/svg"><g id="XMLID_1504_"><g id="XMLID_2526_"><path id="XMLID_2536_" d="m424.415 293.667c-59.017-37.867-134.69-37.867-193.707 0-59.017 37.867-134.69 37.867-193.707 0l64-106.637-64-125.615c59.017 37.867 134.69 37.867 193.707 0 59.017-37.867 134.69-37.867 193.707 0z" fill="#f6838d"/><g id="XMLID_2534_"><path id="XMLID_2535_" d="m475.001 502h-48v-468c0-13.255 10.745-24 24-24 13.255 0 24 10.745 24 24z" fill="#ffcb7c"/></g></g><g id="XMLID_563_"><g id="XMLID_564_"><path id="XMLID_566_" d="m451.001 0c-18.748 0-34 15.252-34 34v11.48c-60.054-32.15-133.767-29.648-191.693 7.517-55.555 35.646-127.352 35.646-182.906 0-3.799-2.436-8.764-2.027-12.112 1.004s-4.248 7.929-2.198 11.953l61.485 120.679-61.151 101.888c-2.782 4.636-1.376 10.644 3.174 13.563 30.975 19.873 66.323 30.06 102.072 30.06 19.954 0 40.038-3.176 59.541-9.614 5.244-1.731 8.093-7.387 6.361-12.631-1.731-5.245-7.392-8.095-12.631-6.361-45.61 15.056-94.722 10.162-136.234-13.28l58.865-98.082c1.773-2.954 1.9-6.614.336-9.686l-49.734-97.616c56.844 23.946 122.982 18.932 175.932-15.044 54.892-35.219 125.625-35.614 180.893-1.24v209.136c-45.655-24.533-99.083-29.332-148.798-12.922-5.244 1.731-8.093 7.387-6.361 12.631s7.389 8.092 12.631 6.361c47.941-15.824 99.744-9.592 142.528 17.034v201.17c0 5.522 4.478 10 10 10h48c5.522 0 10-4.478 10-10v-468c0-18.748-15.252-34-34-34zm14 492h-28v-458c0-7.72 6.28-14 14-14s14 6.28 14 14z"/><path id="XMLID_1238_" d="m225.457 228.463-4.837-4.837 15.038-15.037c9.641 6.709 20.909 10.08 32.175 10.08 14.354 0 28.692-5.451 39.599-16.357 21.871-21.871 21.801-57.527-.155-79.484-10.63-10.63-24.747-16.503-39.75-16.539-.047 0-.091 0-.138 0-14.97 0-29.028 5.816-39.596 16.384-19.466 19.466-21.535 49.846-6.277 71.774l-15.038 15.037-4.838-4.838c-3.906-3.904-10.236-3.904-14.143 0-3.905 3.905-3.905 10.237 0 14.143l4.837 4.837-8.096 8.096c-3.905 3.905-3.905 10.237 0 14.143 1.953 1.952 4.512 2.929 7.071 2.929s5.118-.977 7.071-2.929l8.096-8.096 4.837 4.837c1.953 1.952 4.512 2.929 7.071 2.929s5.118-.977 7.071-2.929c3.907-3.906 3.907-10.238.002-14.143zm16.477-91.649c6.79-6.79 15.826-10.526 25.454-10.526h.089c9.68.023 18.791 3.816 25.655 10.682 14.159 14.158 14.229 37.126.155 51.199-14.072 14.073-37.04 14.005-51.198-.155-14.159-14.159-14.228-37.126-.155-51.2z"/><path id="XMLID_1240_" d="m230.711 283.67c-2.641 0-5.22 1.06-7.07 2.93-1.87 1.86-2.93 4.431-2.93 7.07 0 2.63 1.06 5.21 2.93 7.07 1.86 1.859 4.43 2.93 7.07 2.93 2.63 0 5.21-1.07 7.07-2.93 1.859-1.87 2.93-4.44 2.93-7.07s-1.07-5.21-2.93-7.07c-1.86-1.871-4.441-2.93-7.07-2.93z"/></g></g></g></svg>