<svg id="Capa_1" enable-background="new 0 0 512.152 512.152" height="512" viewBox="0 0 512.152 512.152" width="512" xmlns="http://www.w3.org/2000/svg"><g><g><path clip-rule="evenodd" d="m184.218 62.137c72.708-72.745 190.62-72.745 263.328 0 72.708 72.715 72.708 190.606 0 263.32-72.708 72.745-190.62 72.745-263.328 0-72.709-72.714-72.709-190.605 0-263.32z" fill="#f8f2f0" fill-rule="evenodd"/></g><g><path clip-rule="evenodd" d="m237.706 107.831 8.072-30.128 8.072-30.158c1.371-5.057.853-6.946-2.833-10.632l-12.55-12.52c-19.647 8.956-38.075 21.537-54.25 37.743-16.174 16.176-28.754 34.575-37.74 54.254l12.519 12.52c3.716 3.716 5.605 4.204 10.661 2.863l30.125-8.073 30.125-8.073c2.528-.701 4.143-1.371 5.3-2.528 1.128-1.125 1.829-2.739 2.499-5.268z" fill="#7ca2b1" fill-rule="evenodd"/></g><g><path clip-rule="evenodd" d="m202.341 218.503-22.053-22.055-22.053-22.055c-3.716-3.686-5.605-4.204-10.661-2.833l-17.058 4.569c-4.143 43.623 7.067 88.433 33.658 125.689l17.088-4.6c5.056-1.34 6.427-2.742 7.798-7.798l8.072-30.128 8.072-30.128c.67-2.528.883-4.265.457-5.818-.395-1.584-1.461-2.985-3.32-4.843z" fill="#7ca2b1" fill-rule="evenodd"/></g><g><path clip-rule="evenodd" d="m378.706 210.643 8.072-30.128c.701-2.528.914-4.265.487-5.849-.426-1.554-1.493-2.955-3.32-4.813l-22.053-22.055-22.084-22.055c-1.828-1.858-3.229-2.924-4.813-3.32-1.553-.426-3.29-.213-5.818.457l-30.125 8.073-30.125 8.073c-2.528.67-4.143 1.371-5.3 2.528-1.157 1.127-1.828 2.742-2.498 5.27l-8.072 30.128-8.072 30.128c-.701 2.559-.914 4.265-.487 5.849.426 1.554 1.462 2.955 3.32 4.813l22.053 22.055 22.084 22.055c1.828 1.858 3.229 2.924 4.813 3.32 1.553.426 3.29.213 5.818-.457l30.125-8.073 30.125-8.073c2.528-.67 4.143-1.371 5.3-2.528 1.157-1.127 1.828-2.742 2.498-5.27z" fill="#7ca2b1" fill-rule="evenodd"/></g><g><path clip-rule="evenodd" d="m419.309 59.152 4.569-17.09c-37.222-26.563-82.029-37.774-125.678-33.631l-4.569 17.059c-1.371 5.057-.853 6.945 2.863 10.631l22.053 22.086 22.053 22.055c1.858 1.858 3.259 2.894 4.813 3.32 1.553.426 3.29.213 5.818-.487l30.156-8.073 30.125-8.073c5.056-1.339 6.426-2.74 7.797-7.797z" fill="#7ca2b1" fill-rule="evenodd"/></g><g><path clip-rule="evenodd" d="m447.546 325.457c16.174-16.176 28.754-34.575 37.74-54.254l-12.519-12.52c-3.716-3.716-5.605-4.204-10.661-2.863l-30.125 8.073-30.125 8.073c-2.528.701-4.143 1.371-5.3 2.528-1.127 1.127-1.828 2.742-2.498 5.27l-8.072 30.128-8.072 30.158c-1.371 5.057-.853 6.945 2.833 10.632l12.55 12.52c19.646-8.957 38.074-21.539 54.249-37.745z" fill="#7ca2b1" fill-rule="evenodd"/></g><g><path clip-rule="evenodd" d="m313.216 329.387-22.053-22.055c-1.858-1.858-3.259-2.894-4.813-3.32-1.553-.427-3.29-.213-5.818.487l-30.156 8.073-30.125 8.073c-5.056 1.34-6.427 2.742-7.798 7.798l-4.569 17.09c37.222 26.564 82.029 37.774 125.679 33.631l4.569-17.059c1.34-5.057.853-6.946-2.863-10.632z" fill="#7ca2b1" fill-rule="evenodd"/></g><g><path clip-rule="evenodd" d="m423.878 42.062c-35.486-25.314-77.856-36.707-119.556-34.118 38.167 7.311 74.597 25.711 104.143 55.259 1.188 1.188 2.376 2.407 3.533 3.625 4.66-1.31 6.001-2.772 7.31-7.677z" fill="#668d97" fill-rule="evenodd"/></g><g><path clip-rule="evenodd" d="m447.546 62.137c-7.463-7.463-15.382-14.135-23.668-20.075l-4.569 17.09c-1.31 4.905-2.65 6.367-7.31 7.677 11.331 11.911 20.926 24.858 28.785 38.566l1.919-7.22c1.371-5.057 2.741-6.458 7.798-7.798l17.088-4.6c-5.91-8.287-12.611-16.207-20.043-23.64z" fill="#eee1dc" fill-rule="evenodd"/></g><g><path clip-rule="evenodd" d="m485.286 271.203c8.712-19.039 14.012-39.266 15.961-59.737l-17.058 4.6c-5.087 1.34-6.945.822-10.661-2.863l-6.244-6.245c-.122 16.572-2.285 33.113-6.488 49.228l1.31-.366c5.056-1.34 6.945-.853 10.661 2.863z" fill="#eee1dc" fill-rule="evenodd"/></g><g><path clip-rule="evenodd" d="m485.286 271.203-12.519-12.52c-3.716-3.716-5.605-4.204-10.661-2.863l-1.31.366c-8.712 33.418-26.165 65.008-52.331 91.175-5.239 5.24-10.692 10.144-16.357 14.683l1.188 1.158c19.647-8.956 38.075-21.537 54.25-37.743 16.174-16.177 28.754-34.577 37.74-54.256z" fill="#668d97" fill-rule="evenodd"/></g><g><path clip-rule="evenodd" d="m501.521 179.358c-2.559-32.991-13.859-65.434-33.933-93.582l-17.088 4.6c-5.056 1.34-6.427 2.742-7.798 7.798l-8.072 30.128-8.072 30.128c-.67 2.528-.883 4.265-.457 5.849.396 1.554 1.462 2.955 3.32 4.813l22.053 22.055 22.053 22.055c3.716 3.686 5.574 4.204 10.661 2.863l17.058-4.6c.091-1.066.183-2.163.274-3.229.732-9.626.732-19.252.001-28.878z" fill="#7ca2b1" fill-rule="evenodd"/></g><g><path clip-rule="evenodd" d="m501.521 179.358c-2.559-32.991-13.859-65.434-33.933-93.582l-17.088 4.6c-5.056 1.34-6.427 2.742-7.798 7.798l-1.919 7.22c17.971 31.346 26.805 66.47 26.5 101.563l6.244 6.245c3.716 3.686 5.574 4.204 10.661 2.863l17.058-4.6c.091-1.066.183-2.163.274-3.229.732-9.626.732-19.252.001-28.878z" fill="#668d97" fill-rule="evenodd"/></g><g><path d="m509.623 190.706c-.805-50.587-20.949-98.148-56.721-133.923-69.203-69.24-179.413-75.983-256.359-15.686-3.292 2.58-3.87 7.34-1.29 10.632 2.579 3.292 7.34 3.87 10.632 1.29 9.805-7.683 20.197-14.179 30.993-19.511 0 0 9.894 9.945 10.072 10.182-.036.295-17.031 63.754-17.146 64.021-.271.118-63.716 17.12-64.009 17.153-.236-.176-10.179-10.044-10.179-10.044 6.806-13.826 15.516-26.964 26.148-39.024 2.766-3.138 2.465-7.924-.672-10.689-3.137-2.767-7.923-2.465-10.689.672-27.643 31.355-43.319 69.424-47.231 108.402-.215.804-.301 1.648-.236 2.505-4.831 55.308 13.981 112.195 55.924 154.124 33.12 33.139 77.071 53.143 123.757 56.327 4.422.302 8.837.451 13.243.451 41.667 0 82.331-13.39 115.745-38.334 3.352-2.502 4.041-7.247 1.539-10.599-2.503-3.352-7.248-4.041-10.599-1.538-8.813 6.579-18.088 12.221-27.695 16.936l-8.749-8.728c-.745-.744-1.113-1.185-1.29-1.421.036-.296.138-.868.419-1.905 2.678-10.046 16.611-61.849 16.726-62.116.271-.118 62.09-16.744 62.09-16.744 1.052-.279 1.627-.377 1.92-.41.236.175.682.546 1.444 1.308l8.83 8.831c-7.592 15.267-17.513 29.719-29.782 42.849-2.855 3.057-2.693 7.849.363 10.704 1.46 1.365 3.316 2.04 5.169 2.04 2.024 0 4.044-.807 5.535-2.402 34.399-36.813 52.901-84.882 52.098-135.353zm-82.998-129.598 1.644-6.15c4.807 3.899 9.46 8.07 13.921 12.533 4.468 4.468 8.645 9.113 12.546 13.905l-6.176 1.659c-7.642 2.024-11.087 5.463-13.173 13.159 0 0-16.464 61.561-16.589 62.177l-28.168 7.534c-.416-.471-46.411-46.453-46.888-46.879l7.56-28.186c.609-.127 62.151-16.591 62.151-16.591 7.64-2.025 11.085-5.462 13.172-13.161zm-46.744 115.539c-.035.293-17.033 63.736-17.147 64.004-.271.118-63.7 17.117-63.997 17.152-.237-.18-46.675-46.611-46.854-46.851.036-.297 17.029-63.74 17.145-64.013.276-.118 63.701-17.113 63.998-17.148.238.18 46.679 46.618 46.855 46.856zm-75.732-161.12c38.664-2.502 77.85 7.554 111.026 29.767l-3.175 11.876c-.287 1.057-.491 1.607-.61 1.88-.269.115-.809.313-1.838.585l-30.138 8.075c-10.045 2.71-20.09 5.39-30.164 8.076-1.016.275-1.581.375-1.875.411-.236-.178-.676-.546-1.42-1.289l-22.392-22.395c-7.254-7.255-22.852-22.945-23.033-23.184.038-.295 3.619-13.802 3.619-13.802zm-42.99 34c2.075-7.656.822-12.358-4.793-17.974l-4.583-4.573c11.777-4.525 23.916-7.742 36.204-9.669l-1.665 6.198c-2.081 7.674-.814 12.382 4.806 17.957 7.232 7.263 44.118 44.152 44.118 44.152.48.48.952.925 1.421 1.341l-7.554 28.166c-.614.125-32.031 8.515-32.031 8.515-7.686 2.073-31.405 8.445-32.007 8.646l-20.61-20.634c.195-.597 16.694-62.125 16.694-62.125zm-112.046 80.211 4.527 4.528c3.944 3.945 7.443 5.737 11.858 5.737 1.849 0 3.859-.314 6.13-.916 10.045-2.71 61.533-16.519 62.13-16.719l20.611 20.635c-.196.594-17.023 63.411-17.152 64.036l-28.166 7.555c-.424-.478-45.485-45.579-45.485-45.579-5.635-5.589-10.338-6.833-17.951-4.772l-6.125 1.638c1.924-12.277 5.129-24.396 9.623-36.143zm-11.403 52.299s13.441-3.546 13.732-3.581c.237.175 46.678 46.609 46.853 46.846-.033.292-17.034 63.743-17.153 64.016-.27.115-13.749 3.786-13.749 3.786-22.225-33.229-32.187-72.449-29.683-111.067zm67.427 144.452-1.637 6.135c-4.819-3.894-9.472-8.065-13.928-12.523-4.461-4.459-8.628-9.107-12.52-13.909l6.152-1.653c7.642-2.024 11.087-5.462 13.174-13.161l1.754-6.563c2.096-7.841 4.195-15.695 6.317-23.563l8.078-30.148c.172-.648.311-1.267.435-1.875l28.176-7.558c.415.47 46.408 46.459 46.883 46.884l-7.559 28.181-38.385 10.215c-7.922 2.118-15.859 4.24-23.765 6.372-7.642 2.027-11.087 5.464-13.175 13.166zm122.52 45.349c-38.711 2.458-77.966-7.566-111.033-29.576 1.504-5.553 3.673-13.541 3.75-13.719.27-.115 63.709-17.109 64.003-17.146.239.178 46.667 46.621 46.844 46.855-.022.192-2.094 8.036-3.564 13.586zm42.947-33.77c-2.075 7.655-.823 12.357 4.793 17.975l4.513 4.502c-11.729 4.465-23.828 7.632-36.078 9.53l1.62-6.03c2.036-7.681.767-12.378-4.824-17.923l-29.406-29.433c-4.899-4.893-15.665-15.632-16.129-16.041l7.557-28.176c.608-.124 63.44-16.964 64.037-17.164l20.612 20.635c-.196.595-14.021 52.095-16.695 62.125zm112.193-80.065-4.674-4.675c-5.597-5.597-10.297-6.86-17.977-4.824 0 0-61.545 16.522-62.142 16.722l-20.612-20.636c.196-.594.384-1.206.557-1.86l8.069-30.116c2.107-7.813 4.196-15.628 6.281-23.427l1.789-6.691c.182-.67.328-1.31.458-1.938l28.184-7.538c.418.471.856.944 1.337 1.426l44.129 44.133c3.956 3.923 7.454 5.704 11.865 5.704 1.84 0 3.841-.311 6.098-.904l6.447-1.735c-1.958 12.347-5.225 24.537-9.809 36.359zm11.616-52.532-12.152 3.272c-1.058.278-1.635.375-1.928.407-.236-.174-.684-.543-1.449-1.302l-44.106-44.11c-.763-.763-1.134-1.209-1.309-1.445.033-.293.13-.865.407-1.911 1.339-5.021 16.136-60.226 16.136-60.226.286-1.056.491-1.606.61-1.879.269-.115.81-.313 1.844-.587l11.972-3.217c22.479 33.365 32.503 72.479 29.975 110.998z"/><path d="m87.908 257.136-16.083 16.085c-2.958 2.957-2.957 7.753 0 10.71 1.479 1.479 3.417 2.218 5.355 2.218s3.877-.739 5.355-2.219l16.083-16.085c2.958-2.957 2.957-7.753 0-10.71-2.958-2.957-7.753-2.958-10.71.001z"/><path d="m61.551 304.916c2.956-2.958 2.954-7.754-.004-10.71-2.958-2.957-7.754-2.954-10.71.005l-41.884 41.917c-2.956 2.958-2.954 7.754.004 10.71 1.479 1.478 3.416 2.216 5.353 2.216 1.939 0 3.878-.74 5.357-2.221z"/><path d="m56.644 369.086c-2.958-2.957-7.752-2.958-10.71.001l-27.81 27.813c-2.958 2.957-2.957 7.752 0 10.71 1.479 1.479 3.417 2.218 5.355 2.218s3.876-.739 5.355-2.219l27.81-27.813c2.958-2.957 2.958-7.752 0-10.71z"/><path d="m107.787 317.939c-2.958-2.957-7.752-2.958-10.71.001l-30.155 30.158c-2.958 2.957-2.957 7.753 0 10.71 1.479 1.479 3.417 2.218 5.355 2.218s3.876-.739 5.355-2.219l30.155-30.158c2.958-2.957 2.957-7.753 0-10.71z"/><path d="m123.966 396.425c2.955-2.959 2.952-7.755-.008-10.71s-7.754-2.952-10.71.009l-21.474 21.507c-2.955 2.959-2.952 7.755.008 10.71 1.479 1.476 3.415 2.214 5.351 2.214 1.94 0 3.88-.741 5.359-2.223z"/><path d="m63.781 435.193-29.485 29.519c-2.956 2.96-2.954 7.755.006 10.711 1.479 1.477 3.415 2.215 5.352 2.215 1.939 0 3.879-.74 5.358-2.221l29.485-29.519c2.956-2.96 2.954-7.755-.006-10.711-2.958-2.954-7.753-2.953-10.71.006z"/><path d="m252.533 411.063c-2.959-2.957-7.753-2.956-10.71.003l-78.953 78.99c-2.957 2.958-2.956 7.753.002 10.71 1.479 1.478 3.417 2.217 5.354 2.217 1.938 0 3.877-.74 5.356-2.22l78.953-78.99c2.957-2.958 2.956-7.753-.002-10.71z"/><path d="m191.766 412.605c2.958-2.957 2.957-7.752 0-10.71-2.958-2.957-7.752-2.958-10.71.001l-25.8 25.802c-2.958 2.957-2.957 7.752 0 10.71 1.479 1.479 3.417 2.218 5.355 2.218s3.876-.739 5.355-2.219z"/><path d="m127.263 455.662-25.19 25.192c-2.958 2.957-2.957 7.752 0 10.71 1.479 1.479 3.417 2.218 5.355 2.218s3.876-.739 5.355-2.219l25.19-25.192c2.958-2.957 2.957-7.752 0-10.71-2.958-2.957-7.752-2.958-10.71.001z"/><path d="m15.433 281.096 78.953-78.99c2.957-2.958 2.956-7.753-.002-10.71-2.959-2.958-7.753-2.956-10.71.003l-78.953 78.99c-2.957 2.958-2.956 7.753.002 10.71 1.479 1.479 3.416 2.217 5.354 2.217s3.877-.741 5.356-2.22z"/><path d="m256.535 466.355-32.866 32.869c-2.958 2.957-2.957 7.752 0 10.71 1.479 1.479 3.417 2.218 5.355 2.218s3.876-.739 5.355-2.219l32.866-32.869c2.958-2.957 2.957-7.752 0-10.71-2.957-2.957-7.752-2.958-10.71.001z"/><path d="m302.622 420.264-18.093 18.096c-2.958 2.957-2.957 7.753 0 10.71 1.479 1.479 3.417 2.218 5.355 2.218s3.877-.739 5.355-2.219l18.093-18.096c2.958-2.957 2.957-7.753 0-10.71-2.958-2.957-7.753-2.958-10.71.001z"/></g></g></svg>