<svg height="512" viewBox="0 0 60 60" width="512" xmlns="http://www.w3.org/2000/svg"><g id="025---Social-Housing" fill="none"><g id="Icons" transform="translate(1 1)"><path id="Shape" d="m47 4v9.25l-7-5.25v-4c0-.55228475.4477153-1 1-1h5c.5522847 0 1 .44771525 1 1z" fill="#37474f"/><path id="Shape" d="m44 4v7l-4-3v-4c0-.55228475.4477153-1 1-1h2c.5522847 0 1 .44771525 1 1z" fill="#607d8b"/><path id="Shape" d="m49 14.7v21.81c-1.0953588-.2596459-2.2489665.014846-3.11.74-1.7864807 1.616121-3.8315592 2.9209148-6.05 3.86-1.0527371.3719461-1.9831986 1.0256904-2.69 1.89h-16.3c-.7068014-.8643096-1.6372629-1.5180539-2.69-1.89-2.2184408-.9390852-4.2635193-2.243879-6.05-3.86-.8610335-.725154-2.0146412-.9996459-3.11-.74v-21.81l19.29-14.46c.4192246-.32007169 1.0007754-.32007169 1.42 0z" fill="#607d8b"/><path id="Shape" d="m49 14.7v21.81c-1.0468379-.2484723-2.1498848-.0094788-3 .65v-24.71z" fill="#37474f"/><path id="Shape" d="m29 21v4c-.0081672 1.1011688-.8988312 1.9918328-2 2-1.1032019-.0032948-1.9967052-.8967981-2-2v11c-.0032948 1.1032019-.8967981 1.9967052-2 2-1.1011688-.0081672-1.9918328-.8988312-2-2-.0032948 1.1032019-.8967981 1.9967052-2 2-1.1011688-.0081672-1.9918328-.8988312-2-2v-11c-.0032948 1.1032019-.8967981 1.9967052-2 2-1.1011688-.0081672-1.9918328-.8988312-2-2v-4c0-2.209139 1.790861-4 4-4h8c1.0612728-.0013291 2.0794609.4196715 2.8298947 1.1701053s1.1714344 1.7686219 1.1701053 2.8298947z" fill="#3f51b5"/><path id="Shape" d="m33 31v5c.0081672 1.1011688.8988312 1.9918328 2 2 1.1032019-.0032948 1.9967052-.8967981 2-2v-5z" fill="#ffe0b2"/><path id="Shape" d="m37 31v5c.0081672 1.1011688.8988312 1.9918328 2 2 1.1032019-.0032948 1.9967052-.8967981 2-2v-5z" fill="#ffe0b2"/><path id="Shape" d="m45 21v4c-.0081672 1.1011688-.8988312 1.9918328-2 2-1.1032019-.0032948-1.9967052-.8967981-2-2v1l2.28 4.55c.1567797.3111094.1403468.6813893-.0433761.9773872-.1837229.295998-.508252.4750458-.8566239.4726128h-10.76c-.3483719.002433-.672901-.1766148-.8566239-.4726128-.1837229-.2959979-.2001558-.6662778-.0433761-.9773872l2.28-4.55v-1c-.0032948 1.1032019-.8967981 1.9967052-2 2-1.1011688-.0081672-1.9918328-.8988312-2-2v-4c0-2.209139 1.790861-4 4-4h8c1.0612728-.0013291 2.0794609.4196715 2.8298947 1.1701053s1.1714344 1.7686219 1.1701053 2.8298947z" fill="#ef314c"/><path id="Shape" d="m23 49.14v3.36h-9.18l-7.73-7.73c-.82544969-.8176978-1.49325347-1.78042-1.97-2.84l-3.92-8.62c-.1326608-.2849735-.20094415-.5956627-.2-.91.00547504-1.2072285.98277151-2.184525 2.19-2.19.87708143-.003166 1.66999311.521497 2.01 1.33l2.24 5.22c.07098189.1546383.1511242.3049051.24.45.4.64.59.27.59.27.37484712-.3736067.82477508-.663333 1.32-.85 1.19969043-.4387051 2.5424016-.2022048 3.52.62 1.7864807 1.616121 3.8315592 2.9209148 6.05 3.86 1.1389952.4088997 2.1356147 1.1381334 2.87 2.1 1.3070513 1.6977125 2.0013503 3.7876582 1.97 5.93z" fill="#ffe0b2"/><rect id="Rectangle-path" fill="#ef314c" height="6" rx="1" width="13" x="12" y="52"/><path id="Shape" d="m58 32.4c.0009441.3143373-.0673392.6250265-.2.91l-3.92 8.62c-.4767465 1.05958-1.1445503 2.0223022-1.97 2.84l-7.73 7.73h-9.18v-3.36c-.0313503-2.1423418.6629487-4.2322875 1.97-5.93.7343853-.9618666 1.7310048-1.6911003 2.87-2.1 2.2184408-.9390852 4.2635193-2.243879 6.05-3.86.6745805-.5624687 1.5321295-.8578071 2.41-.83.2115992.0055112.422352.0289281.63.07.6769212.1461224 1.2979777.4826726 1.79.97l3.08-5.92c.1165764-.2795105.2902912-.5315672.51-.74.6379209-.5958976 1.5685151-.756702 2.3694137-.409429.8008985.3472731 1.3195627 1.1364823 1.3205863 2.009429z" fill="#dfc49c"/><path id="Shape" d="m58 32.4c.0009441.3143373-.0673392.6250265-.2.91l-3.92 8.62c-.4767465 1.05958-1.1445503 2.0223022-1.97 2.84l-7.73 7.73h-9.18v-3.36c-.0313503-2.1423418.6629487-4.2322875 1.97-5.93.7343853-.9618666 1.7310048-1.6911003 2.87-2.1 2.2184408-.9390852 4.2635193-2.243879 6.05-3.86.6745805-.5624687 1.5321295-.8578071 2.41-.83.2115992.0055112.422352.0289281.63.07.6769212.1461224 1.2979777.4826726 1.79.97l3.08-5.92c.1165764-.2795105.2902912-.5315672.51-.74.6379209-.5958976 1.5685151-.756702 2.3694137-.409429.8008985.3472731 1.3195627 1.1364823 1.3205863 2.009429z" fill="#ffe0b2"/><path id="Shape" d="m58 32.4c.0009441.3143373-.0673392.6250265-.2.91l-3.92 8.62c-.4767465 1.05958-1.1445503 2.0223022-1.97 2.84l-7.73 7.73h-3l7.73-7.73c.8254497-.8176978 1.4932535-1.78042 1.97-2.84l3.92-8.62c.1326608-.2849735.2009441-.5956627.2-.91-.0028042-.6049832-.2519514-1.182716-.69-1.6.6379209-.5958976 1.5685151-.756702 2.3694137-.409429.8008985.3472731 1.3195627 1.1364823 1.3205863 2.009429z" fill="#dfc49c"/><rect id="Rectangle-path" fill="#bb193b" height="6" rx="1" width="13" x="33" y="52"/><rect id="Rectangle-path" fill="#ef314c" height="6" rx="1" width="10" x="33" y="52"/><g fill="#ffe0b2"><circle id="Oval" cx="21" cy="14" r="3"/><circle id="Oval" cx="37" cy="14" r="3"/></g></g><g id="Outline" fill="#000"><path id="Shape" d="m23 55h-1c-.5522847 0-1 .4477153-1 1s.4477153 1 1 1h1c.5522847 0 1-.4477153 1-1s-.4477153-1-1-1z"/><path id="Shape" d="m56.81 30.213c-1.2760008-.0009598-2.4294137.7597182-2.931 1.933l-2.158 5.035c-.2282424-.1486692-.4695766-.2761981-.721-.381v-19.1c3.52 2.638 3.525 2.749 4 2.749.4304304 0 .8125693-.2754301.9486833-.6837722.136114-.4083422-.004339-.8579696-.3486833-1.1162278l-6.6-4.949v-8.7c0-1.1045695-.8954305-2-2-2h-5c-1.1045695 0-2 .8954305-2 2v1.955l-8.684-6.51c-.7753393-.58985754-1.8484201-.59190073-2.626-.005l-24.29 18.21c-.44182777.3313709-.5313708.9581722-.19999996 1.4s.95817216.5313708 1.39999996.2l3.4-2.55v19.117c-.24864001.1054569-.48783908.2319146-.715.378l-2.163-5.049c-.45997943-1.0419651-1.44089973-1.7593845-2.57325771-1.8820132-1.13235799-.1226286-2.24412153.3681636-2.91650005 1.2875-.67237853.9193365-.80322173 2.1275481-.34324224 3.1695132l3.919 8.621c.5287119 1.167062 1.26422588 2.2288311 2.171 3.134l6.163 6.164c-.3470905.3678818-.5409128.8542257-.542 1.36v4c0 1.1045695.8954305 2 2 2h11c1.1045695 0 2-.8954305 2-2v-4c0-1.1045695-.8954305-2-2-2v-1.861c.0111483-1.7908052-.4217596-3.5564512-1.26-5.139h12.52c-.8382404 1.5825488-1.2711483 3.3481948-1.26 5.139v1.861c-1.1045695 0-2 .8954305-2 2v4c0 1.1045695.8954305 2 2 2h11c1.1045695 0 2-.8954305 2-2v-4c-.0010549-.5059699-.1952849-.9924393-.543-1.36l6.164-6.164c.9061174-.9053366 1.6415517-1.966652 2.171-3.133l3.92-8.622c.4481567-.9865.3647487-2.1330656-.2214617-3.0443197-.5862105-.911254-1.5950138-1.462512-2.6785383-1.4636803zm-14.81-25.213h5v7.2l-5-3.745zm-31 11.2 18.894-14.163c.17-.128-.965-.881 19.106 14.164v20.231c-1.0082651.0345196-1.9761246.4047698-2.75 1.052-1.6818729 1.5460529-3.6188382 2.789094-5.725 3.674-1.0702785.3750672-2.0318625 1.0076522-2.8 1.842h-15.45c-.7683244-.8341278-1.7298496-1.466674-2.8-1.842-2.1061618-.884906-4.0431271-2.1279471-5.725-3.674-.7738358-.6462308-1.7422654-1.0138819-2.75-1.044zm14 41.8h-11v-4h11zm-10.27-6-6.937-6.938c-.73686674-.7358231-1.33479489-1.598669-1.765-2.547l-3.919-8.621c-.16724673-.3679533-.13612012-.7956696.08263714-1.1355319.21875727-.3398622.59518335-.5453216.99936286-.5454681.47564654-.0003844.90551136.2834366 1.092.721l2.237 5.217c.59402167 1.3919028 1.45024427 2.6565456 2.522 3.725l4.568 4.569c.2510745.2599566.6228779.3642126.9725073.2726972.3496295-.0915155.6226744-.3645604.7141899-.7141899.0915154-.3496294-.0127406-.7214328-.2726972-.9725073l-4.568-4.569c-.45933672-.4582278-.8723376-.9606619-1.233-1.5.9603362-.7389791 2.3038309-.7165806 3.239.054 1.8693425 1.715555 4.0298904 3.0836763 6.38 4.04.9576453.3484679 1.7932544.9679652 2.405 1.783 1.165398 1.5183757 1.7831832 3.3861802 1.753 5.3v1.861zm31.27 6h-11v-4h11zm11.892-24.107-3.92 8.622c-.4304345.9482009-1.0283357 1.8110078-1.765 2.547l-6.938 6.938h-8.269v-1.861c-.0301832-1.9138198.587602-3.7816243 1.753-5.3.6105264-.8141358 1.4442635-1.4335329 2.4-1.783 2.3507451-.9561185 4.5117122-2.3246294 6.381-4.041.9354549-.7694566 2.27832-.7910221 3.238-.052-.3598685.5393678-.7722095 1.0418142-1.231 1.5l-4.569 4.569c-.3789722.3923789-.3735524 1.0160848.0121814 1.4018186s1.0094397.3911536 1.4018186.0121814l4.569-4.569c1.070897-1.0689553 1.9267066-2.3334895 2.521-3.725l2.237-5.218c.18715-.437329.6173096-.7206913 1.093-.72.403904.0003006.7800345.2056257.9987347.5451971.2187001.3395714.2500584.7669462.0832653 1.1348029z"/><path id="Shape" d="m38 55h-1c-.5522847 0-1 .4477153-1 1s.4477153 1 1 1h1c.5522847 0 1-.4477153 1-1s-.4477153-1-1-1z"/><path id="Shape" d="m17 28.816v8.184c.0004377 1.1829497.6978075 2.2545782 1.7792195 2.7340762 1.081412.4794981 2.3438054.2768287 3.2207805-.5170762.8764021.7957968 2.1397859.9996035 3.2219716.5197624 1.0821856-.4798411 1.7793775-1.552967 1.7780284-2.7367624v-8.184c1.0332028.3808451 2.1927532.148935 3-.6.5193586.4703181 1.1878321.7425936 1.888.769l-1.059 2.116c-.3121783.620383-.2801699 1.3583034.0845549 1.9493247s1.0099455.9505226 1.7044451.9496753h.382v3c.0004377 1.1829497.6978075 2.2545782 1.7792195 2.7340762 1.081412.4794981 2.3438054.2768287 3.2207805-.5170762.8764021.7957968 2.1397859.9996035 3.2219716.5197624 1.0821856-.4798411 1.7793775-1.552967 1.7780284-2.7367624v-3c.8200129.1171186 1.63326-.253391 2.083-.949.3669035-.5888676.4002563-1.3264201.088-1.946l-1.059-2.116c1.608704-.0600931 2.8832193-1.3791811 2.888-2.989v-4c0-2.7614237-2.2385763-5-5-5h-.556c.9782456-1.6755552.6086477-3.8120118-.8756286-5.0615612-1.4842762-1.2495494-3.6524666-1.2495494-5.1367428 0-1.4842763 1.2495494-1.8538742 3.386006-.8756286 5.0615612h-.556c-1.58013.0046678-3.0643578.7586555-4 2.032-.9267199-1.2838163-2.416675-2.0407135-4-2.032h-.556c.9782456-1.6755552.6086477-3.8120118-.8756286-5.0615612-1.4842762-1.2495494-3.6524666-1.2495494-5.1367428 0-1.4842763 1.2495494-1.8538742 3.386006-.8756286 5.0615612h-.556c-2.7600532.0033061-4.9966939 2.2399468-5 5v4c-.001963.9739965.47108 1.8877796 1.2675112 2.4484671.7964311.5606875 1.8162128.6978531 2.7324888.3675329zm20 8.184c-.003293.4042387-.2496464.7667342-.6242868.9186036-.3746405.1518695-.8038692.0632373-1.0877132-.2246036-.1865985-.1823963-.2906276-.4330776-.288-.694v-3h2zm4 0c-.003293.4042387-.2496464.7667342-.6242868.9186036-.3746405.1518695-.8038692.0632373-1.0877132-.2246036-.1865985-.1823963-.2906276-.4330776-.288-.694v-3h2zm-3-24c1.1045695 0 2 .8954305 2 2s-.8954305 2-2 2-2-.8954305-2-2 .8954305-2 2-2zm-7 9c0-1.6568542 1.3431458-3 3-3h8c1.6568542 0 3 1.3431458 3 3v4c0 .5522847-.4477153 1-1 1s-1-.4477153-1-1v-4c0-.5522847-.4477153-1-1-1s-1 .4477153-1 1c0 5.078-.028 5.147.1 5.417.136.293-.568-1.123 2.285 4.583h-10.767c2.322-4.644 2.367-4.641 2.376-4.97.006-.297.006-3.187.006-5.03 0-.5522847-.4477153-1-1-1s-1 .4477153-1 1v4c0 .5522847-.4477153 1-1 1s-1-.4477153-1-1zm-9-9c1.1045695 0 2 .8954305 2 2s-.8954305 2-2 2-2-.8954305-2-2 .8954305-2 2-2zm-7 9c0-1.6568542 1.3431458-3 3-3h8c1.6568542 0 3 1.3431458 3 3v4c0 .5522847-.4477153 1-1 1s-1-.4477153-1-1v-4c0-.5522847-.4477153-1-1-1s-1 .4477153-1 1v15c0 .5522847-.4477153 1-1 1s-1-.4477153-1-1v-8c0-.5522847-.4477153-1-1-1s-1 .4477153-1 1v8c-.003293.4042387-.2496464.7667342-.6242868.9186036-.3746405.1518695-.8038692.0632373-1.0877132-.2246036-.1865985-.1823963-.2906276-.4330776-.288-.694v-15c0-.5522847-.4477153-1-1-1s-1 .4477153-1 1v4c0 .5522847-.4477153 1-1 1s-1-.4477153-1-1z"/></g></g></svg>