<svg id="Capa_1" enable-background="new 0 0 511.979 511.979" height="512" viewBox="0 0 511.979 511.979" width="512" xmlns="http://www.w3.org/2000/svg"><g id="XMLID_1716_"><path id="XMLID_2085_" d="m186.488 184.476 40.385-40.385v27.744h40v-96.027h-96.028v40h27.744l-40.385 40.385c-37.19-24.141-87.555-19.926-120.136 12.656-37.43 37.43-37.43 98.334 0 135.765s98.334 37.43 135.764 0c32.582-32.583 36.797-82.948 12.656-120.138zm-120.136 91.852c-21.834-21.834-21.834-57.362 0-79.196s57.362-21.834 79.196 0 21.834 57.362 0 79.196c-21.834 21.835-57.362 21.835-79.196 0z" fill="#f5737f"/><path id="XMLID_2082_" d="m501.979 236.73c0-52.935-43.065-96-96-96s-96 43.065-96 96c0 46.078 32.633 84.671 76 93.898v32.003h-33.54v40h33.54v33.54h40v-33.54h33.54v-40h-33.54v-32.003c43.367-9.226 76-47.82 76-93.898zm-152 0c0-30.878 25.122-56 56-56s56 25.122 56 56-25.122 56-56 56-56-25.121-56-56z" fill="#91def5"/><g id="XMLID_1956_"><path id="XMLID_193_" d="m425.979 446.172h-40c-5.523 0-10-4.477-10-10v-23.54h-23.54c-5.523 0-10-4.477-10-10v-40c0-5.523 4.477-10 10-10h23.54v-14.233c-44.494-13.162-76-54.68-76-101.669 0-39.895 22.101-76.041 57.676-94.333 4.912-2.526 10.94-.591 13.466 4.321 2.525 4.912.591 10.941-4.321 13.466-28.881 14.849-46.822 44.179-46.822 76.545 0 40.348 28.632 75.724 68.081 84.117 4.618.982 7.919 5.061 7.919 9.781v32.003c0 5.523-4.477 10-10 10h-23.54v20h23.54c5.523 0 10 4.477 10 10v23.54h20v-23.54c0-5.523 4.477-10 10-10h23.54v-20h-23.54c-5.523 0-10-4.477-10-10v-32.003c0-4.721 3.301-8.799 7.919-9.781 39.449-8.393 68.081-43.77 68.081-84.117 0-32.367-17.942-61.698-46.825-76.547-4.912-2.525-6.846-8.554-4.321-13.466 2.525-4.911 8.556-6.846 13.466-4.321 35.579 18.291 57.68 54.438 57.68 94.334 0 46.989-31.506 88.507-76 101.669v14.233h23.54c5.523 0 10 4.477 10 10v40c0 5.523-4.477 10-10 10h-23.54v23.54c.001 5.524-4.476 10.001-9.999 10.001zm-20-143.442c-36.393 0-66-29.607-66-66s29.607-66 66-66 66 29.607 66 66-29.607 66-66 66zm0-112c-25.364 0-46 20.635-46 46 0 25.364 20.636 46 46 46s46-20.636 46-46-20.635-46-46-46z"/></g><g id="XMLID_1731_"><path id="XMLID_188_" d="m105.95 342.681c-27.144 0-54.289-10.332-74.953-30.997-41.329-41.33-41.329-108.578 0-149.907 33.227-33.227 84.864-40.305 125.632-18.151l17.818-17.819h-3.602c-5.523 0-10-4.477-10-10v-40c0-5.523 4.477-10 10-10h96.028c2.652 0 5.196 1.054 7.071 2.929s2.929 4.419 2.929 7.071v96.028c0 5.523-4.477 10-10 10h-40c-5.523 0-10-4.477-10-10v-3.602l-17.818 17.818c22.155 40.769 15.075 92.404-18.151 125.631-20.665 20.667-47.809 30.999-74.954 30.999zm.151-191.845c-22.286 0-44.432 8.553-60.962 25.083-33.531 33.531-33.531 88.091 0 121.623 16.764 16.763 38.791 25.146 60.811 25.148 22.025.002 44.043-8.38 60.811-25.148 28.53-28.53 33.299-73.791 11.34-107.62-2.57-3.96-2.021-9.178 1.316-12.516l40.384-40.385c2.861-2.86 7.163-3.715 10.898-2.168 3.737 1.548 6.173 5.194 6.173 9.239v17.744h20v-76.028h-76.028v20h17.744c4.044 0 7.691 2.437 9.239 6.173s.692 8.038-2.167 10.897l-40.384 40.385c-3.339 3.338-8.557 3.887-12.516 1.317-14.229-9.236-30.482-13.744-46.659-13.744zm-.151 151.864c-16.901 0-33.802-6.434-46.669-19.3-12.449-12.449-19.305-29.023-19.305-46.669s6.856-34.22 19.305-46.669c25.734-25.732 67.605-25.732 93.338 0 25.734 25.734 25.734 67.605 0 93.339-12.867 12.865-29.768 19.299-46.669 19.299zm0-111.948c-11.779 0-23.559 4.484-32.526 13.452-8.671 8.671-13.447 20.223-13.447 32.527s4.776 23.855 13.447 32.527c17.935 17.936 47.117 17.936 65.054 0 17.935-17.935 17.935-47.119 0-65.054-8.969-8.968-20.748-13.452-32.528-13.452z"/></g><g id="XMLID_1730_"><path id="XMLID_185_" d="m269.979 233.516h-28c-5.523 0-10-4.477-10-10s4.477-10 10-10h28c5.523 0 10 4.477 10 10s-4.477 10-10 10z"/></g><g id="XMLID_1727_"><path id="XMLID_184_" d="m269.979 277.516h-28c-5.523 0-10-4.477-10-10s4.477-10 10-10h28c5.523 0 10 4.477 10 10s-4.477 10-10 10z"/></g><g id="XMLID_1719_"><g id="XMLID_1724_"><path id="XMLID_183_" d="m405.977 150.729c-2.63 0-5.21-1.07-7.07-2.93s-2.93-4.44-2.93-7.07 1.07-5.21 2.93-7.07 4.44-2.93 7.07-2.93c2.64 0 5.21 1.07 7.07 2.93s2.93 4.44 2.93 7.07-1.07 5.21-2.93 7.07c-1.86 1.861-4.44 2.93-7.07 2.93z"/></g></g></g></svg>